<svg width="12" height="9" viewBox="0 0 12 9" fill="none" xmlns="http://www.w3.org/2000/svg">
<path d="M6 0.92334C3.70727 0.92334 1.62811 2.17771 0.0938938 4.21515C-0.0312979 4.38207 -0.0312979 4.61527 0.0938938 4.78219C1.62811 6.82208 3.70727 8.07645 6 8.07645C8.29273 8.07645 10.3719 6.82208 11.9061 4.78465C12.0313 4.61772 12.0313 4.38452 11.9061 4.2176C10.3719 2.17771 8.29273 0.92334 6 0.92334ZM6.16447 7.01846C4.64253 7.1142 3.3857 5.85982 3.48144 4.33543C3.55999 3.0786 4.57871 2.05988 5.83553 1.98133C7.35747 1.8856 8.6143 3.13997 8.51856 4.66436C8.43756 5.91874 7.41884 6.93745 6.16447 7.01846ZM6.08837 5.85491C5.26849 5.90646 4.59098 5.23141 4.64498 4.41153C4.68671 3.73402 5.23658 3.18661 5.91408 3.14243C6.73397 3.09088 7.41148 3.76593 7.35747 4.58581C7.31329 5.26578 6.76342 5.81318 6.08837 5.85491Z" fill="white"/>
</svg>
