<svg width="127" height="85" viewBox="0 0 127 85" fill="none" xmlns="http://www.w3.org/2000/svg">
<path fill-rule="evenodd" clip-rule="evenodd" d="M0.5 14V35H7.5V21H21.5V42H63.5V21H70.5V42H112.5V0H70.5V14H63.5V0H21.5V14H0.5ZM28.5 7H42.5V35H28.5V7ZM91.5 7H77.5V35H91.5V7Z" fill="#EEEEEE"/>
<rect x="42.5" y="7" width="14" height="28" fill="#E5E5E5"/>
<rect x="91.5" y="7" width="14" height="28" fill="#E5E5E5"/>
<path d="M30.6705 69.3636V81H29.0568L23.142 72.4659H23.0341V81H21.2784V69.3636H22.9034L28.8239 77.9091H28.9318V69.3636H30.6705ZM36.7713 81.1761C35.9531 81.1761 35.2391 80.9886 34.6293 80.6136C34.0194 80.2386 33.5459 79.714 33.2088 79.0398C32.8717 78.3655 32.7031 77.5777 32.7031 76.6761C32.7031 75.7708 32.8717 74.9792 33.2088 74.3011C33.5459 73.6231 34.0194 73.0966 34.6293 72.7216C35.2391 72.3466 35.9531 72.1591 36.7713 72.1591C37.5895 72.1591 38.3035 72.3466 38.9134 72.7216C39.5232 73.0966 39.9967 73.6231 40.3338 74.3011C40.6709 74.9792 40.8395 75.7708 40.8395 76.6761C40.8395 77.5777 40.6709 78.3655 40.3338 79.0398C39.9967 79.714 39.5232 80.2386 38.9134 80.6136C38.3035 80.9886 37.5895 81.1761 36.7713 81.1761ZM36.777 79.75C37.3073 79.75 37.7467 79.6098 38.0952 79.3295C38.4437 79.0492 38.7012 78.6761 38.8679 78.2102C39.0384 77.7443 39.1236 77.2311 39.1236 76.6705C39.1236 76.1136 39.0384 75.6023 38.8679 75.1364C38.7012 74.6667 38.4437 74.2898 38.0952 74.0057C37.7467 73.7216 37.3073 73.5795 36.777 73.5795C36.2429 73.5795 35.7997 73.7216 35.4474 74.0057C35.099 74.2898 34.8395 74.6667 34.669 75.1364C34.5024 75.6023 34.419 76.1136 34.419 76.6705C34.419 77.2311 34.5024 77.7443 34.669 78.2102C34.8395 78.6761 35.099 79.0492 35.4474 79.3295C35.7997 79.6098 36.2429 79.75 36.777 79.75ZM47.1065 81V69.3636H48.8054V73.6875H48.9077C49.0062 73.5057 49.1482 73.2955 49.3338 73.0568C49.5194 72.8182 49.777 72.6098 50.1065 72.4318C50.4361 72.25 50.8717 72.1591 51.4134 72.1591C52.1179 72.1591 52.7467 72.3371 53.2997 72.6932C53.8527 73.0492 54.2865 73.5625 54.6009 74.233C54.919 74.9034 55.0781 75.7102 55.0781 76.6534C55.0781 77.5966 54.9209 78.4053 54.6065 79.0795C54.2921 79.75 53.8603 80.267 53.3111 80.6307C52.7618 80.9905 52.1349 81.1705 51.4304 81.1705C50.9001 81.1705 50.4664 81.0814 50.1293 80.9034C49.7959 80.7254 49.5346 80.517 49.3452 80.2784C49.1558 80.0398 49.0099 79.8277 48.9077 79.642H48.7656V81H47.1065ZM48.7713 76.6364C48.7713 77.25 48.8603 77.7879 49.0384 78.25C49.2164 78.7121 49.474 79.0739 49.8111 79.3352C50.1482 79.5928 50.5611 79.7216 51.0497 79.7216C51.5573 79.7216 51.9815 79.5871 52.3224 79.3182C52.6634 79.0455 52.9209 78.6761 53.0952 78.2102C53.2732 77.7443 53.3622 77.2197 53.3622 76.6364C53.3622 76.0606 53.2751 75.5436 53.1009 75.0852C52.9304 74.6269 52.6728 74.2652 52.3281 74C51.9872 73.7348 51.5611 73.6023 51.0497 73.6023C50.5573 73.6023 50.1406 73.7292 49.7997 73.983C49.4626 74.2367 49.2069 74.5909 49.0327 75.0455C48.8584 75.5 48.7713 76.0303 48.7713 76.6364ZM56.9858 81V72.2727H58.6847V81H56.9858ZM57.8438 70.9261C57.5483 70.9261 57.2945 70.8277 57.0824 70.6307C56.8741 70.4299 56.7699 70.1913 56.7699 69.9148C56.7699 69.6345 56.8741 69.3958 57.0824 69.1989C57.2945 68.9981 57.5483 68.8977 57.8438 68.8977C58.1392 68.8977 58.3911 68.9981 58.5994 69.1989C58.8116 69.3958 58.9176 69.6345 58.9176 69.9148C58.9176 70.1913 58.8116 70.4299 58.5994 70.6307C58.3911 70.8277 58.1392 70.9261 57.8438 70.9261ZM64.2372 81.1705C63.5327 81.1705 62.9039 80.9905 62.3509 80.6307C61.8016 80.267 61.3698 79.75 61.0554 79.0795C60.7448 78.4053 60.5895 77.5966 60.5895 76.6534C60.5895 75.7102 60.7467 74.9034 61.0611 74.233C61.3793 73.5625 61.8149 73.0492 62.3679 72.6932C62.9209 72.3371 63.5478 72.1591 64.2486 72.1591C64.7902 72.1591 65.2259 72.25 65.5554 72.4318C65.8887 72.6098 66.1463 72.8182 66.3281 73.0568C66.5137 73.2955 66.6577 73.5057 66.7599 73.6875H66.8622V69.3636H68.5611V81H66.902V79.642H66.7599C66.6577 79.8277 66.5099 80.0398 66.3168 80.2784C66.1274 80.517 65.866 80.7254 65.5327 80.9034C65.1993 81.0814 64.7675 81.1705 64.2372 81.1705ZM64.6122 79.7216C65.1009 79.7216 65.5137 79.5928 65.8509 79.3352C66.1918 79.0739 66.4493 78.7121 66.6236 78.25C66.8016 77.7879 66.8906 77.25 66.8906 76.6364C66.8906 76.0303 66.8035 75.5 66.6293 75.0455C66.455 74.5909 66.1993 74.2367 65.8622 73.983C65.5251 73.7292 65.1084 73.6023 64.6122 73.6023C64.1009 73.6023 63.6747 73.7348 63.3338 74C62.9929 74.2652 62.7353 74.6269 62.5611 75.0852C62.3906 75.5436 62.3054 76.0606 62.3054 76.6364C62.3054 77.2197 62.3925 77.7443 62.5668 78.2102C62.741 78.6761 62.9986 79.0455 63.3395 79.3182C63.6842 79.5871 64.1084 79.7216 64.6122 79.7216ZM77.5256 74.4034L75.9858 74.6761C75.9214 74.4792 75.8191 74.2917 75.679 74.1136C75.5426 73.9356 75.357 73.7898 75.1222 73.6761C74.8873 73.5625 74.5938 73.5057 74.2415 73.5057C73.7604 73.5057 73.3589 73.6136 73.0369 73.8295C72.715 74.0417 72.554 74.3163 72.554 74.6534C72.554 74.9451 72.6619 75.1799 72.8778 75.358C73.0938 75.536 73.4422 75.6818 73.9233 75.7955L75.3097 76.1136C76.1127 76.2992 76.7112 76.5852 77.1051 76.9716C77.4991 77.358 77.696 77.8598 77.696 78.4773C77.696 79 77.5445 79.4659 77.2415 79.875C76.9422 80.2803 76.5237 80.5985 75.9858 80.8295C75.4517 81.0606 74.8324 81.1761 74.1278 81.1761C73.1506 81.1761 72.3532 80.9678 71.7358 80.5511C71.1184 80.1307 70.7396 79.5341 70.5994 78.7614L72.2415 78.5114C72.3438 78.9394 72.554 79.2633 72.8722 79.483C73.1903 79.6989 73.6051 79.8068 74.1165 79.8068C74.6733 79.8068 75.1184 79.6913 75.4517 79.4602C75.785 79.2254 75.9517 78.9394 75.9517 78.6023C75.9517 78.3295 75.8494 78.1004 75.6449 77.9148C75.4441 77.7292 75.1354 77.589 74.7188 77.4943L73.2415 77.1705C72.4271 76.9848 71.8248 76.6894 71.4347 76.2841C71.0483 75.8788 70.8551 75.3655 70.8551 74.7443C70.8551 74.2292 70.9991 73.7784 71.2869 73.392C71.5748 73.0057 71.9725 72.7045 72.4801 72.4886C72.9877 72.2689 73.5691 72.1591 74.2244 72.1591C75.1676 72.1591 75.91 72.3636 76.4517 72.7727C76.9934 73.178 77.3513 73.7216 77.5256 74.4034ZM84.8722 84.2727C84.6184 84.2727 84.3873 84.2519 84.179 84.2102C83.9706 84.1723 83.8153 84.1307 83.7131 84.0852L84.1222 82.6932C84.4328 82.7765 84.7093 82.8125 84.9517 82.8011C85.1941 82.7898 85.4081 82.6989 85.5938 82.5284C85.7831 82.358 85.9498 82.0795 86.0938 81.6932L86.304 81.1136L83.1108 72.2727H84.929L87.1392 79.0455H87.2301L89.4403 72.2727H91.2642L87.6676 82.1648C87.5009 82.6193 87.2888 83.0038 87.0312 83.3182C86.7737 83.6364 86.4669 83.875 86.1108 84.0341C85.7547 84.1932 85.3419 84.2727 84.8722 84.2727ZM96.3253 81.1761C95.4654 81.1761 94.7249 80.9924 94.1037 80.625C93.4863 80.2538 93.009 79.733 92.6719 79.0625C92.3385 78.3883 92.1719 77.5985 92.1719 76.6932C92.1719 75.7992 92.3385 75.0114 92.6719 74.3295C93.009 73.6477 93.4787 73.1155 94.081 72.733C94.687 72.3504 95.3954 72.1591 96.206 72.1591C96.6984 72.1591 97.1757 72.2405 97.6378 72.4034C98.0999 72.5663 98.5147 72.822 98.8821 73.1705C99.2495 73.5189 99.5393 73.9716 99.7514 74.5284C99.9635 75.0814 100.07 75.7538 100.07 76.5455V77.1477H93.1321V75.875H98.4048C98.4048 75.428 98.3139 75.0322 98.1321 74.6875C97.9503 74.339 97.6946 74.0644 97.3651 73.8636C97.0393 73.6629 96.6567 73.5625 96.2173 73.5625C95.7401 73.5625 95.3234 73.6799 94.9673 73.9148C94.6151 74.1458 94.3423 74.4489 94.1491 74.8239C93.9598 75.1951 93.8651 75.5985 93.8651 76.0341V77.0284C93.8651 77.6117 93.9673 78.108 94.1719 78.517C94.3802 78.9261 94.67 79.2386 95.0412 79.4545C95.4124 79.6667 95.8461 79.7727 96.3423 79.7727C96.6643 79.7727 96.9579 79.7273 97.223 79.6364C97.4882 79.5417 97.7173 79.4015 97.9105 79.2159C98.1037 79.0303 98.2514 78.8011 98.3537 78.5284L99.9616 78.8182C99.8329 79.2917 99.6018 79.7064 99.2685 80.0625C98.9389 80.4148 98.5241 80.6894 98.0241 80.8864C97.5279 81.0795 96.9616 81.1761 96.3253 81.1761ZM106.028 72.2727V73.6364H101.261V72.2727H106.028ZM102.54 70.1818H104.239V78.4375C104.239 78.767 104.288 79.0152 104.386 79.1818C104.485 79.3447 104.612 79.4564 104.767 79.517C104.926 79.5739 105.098 79.6023 105.284 79.6023C105.42 79.6023 105.54 79.5928 105.642 79.5739C105.744 79.5549 105.824 79.5398 105.881 79.5284L106.188 80.9318C106.089 80.9697 105.949 81.0076 105.767 81.0455C105.585 81.0871 105.358 81.1098 105.085 81.1136C104.638 81.1212 104.222 81.0417 103.835 80.875C103.449 80.7083 103.136 80.4508 102.898 80.1023C102.659 79.7538 102.54 79.3163 102.54 78.7898V70.1818Z" fill="#E0E0E0"/>
</svg>
