<svg width="12" height="16" viewBox="0 0 12 16" fill="none" xmlns="http://www.w3.org/2000/svg">
<path d="M10.5 0.75C10.3011 0.75 10.1104 0.829018 9.9697 0.96967C9.82905 1.11032 9.75003 1.30109 9.75003 1.5V10C9.75003 10.2652 9.64467 10.5196 9.45713 10.7071C9.2696 10.8946 9.01524 11 8.75003 11H3.31068L4.78037 9.53034C4.92103 9.38969 5.00005 9.19892 5.00005 9C5.00005 8.80108 4.92103 8.61031 4.78037 8.46966C4.63971 8.329 4.44894 8.24998 4.25003 8.24998C4.05111 8.24998 3.86034 8.329 3.71968 8.46966L0.969684 11.2197C0.900036 11.2893 0.844788 11.372 0.807094 11.463C0.769401 11.554 0.75 11.6515 0.75 11.75C0.75 11.8485 0.769401 11.946 0.807094 12.037C0.844788 12.128 0.900036 12.2107 0.969684 12.2803L3.71968 15.0303C3.86034 15.171 4.05111 15.25 4.25003 15.25C4.44894 15.25 4.63971 15.171 4.78037 15.0303C4.92103 14.8897 5.00005 14.6989 5.00005 14.5C5.00005 14.3011 4.92103 14.1103 4.78037 13.9697L3.31068 12.5H8.75003C9.07833 12.5 9.40342 12.4353 9.70674 12.3097C10.0101 12.1841 10.2856 11.9999 10.5178 11.7678C10.7499 11.5356 10.9341 11.26 11.0597 10.9567C11.1854 10.6534 11.25 10.3283 11.25 10V1.5C11.25 1.30109 11.171 1.11032 11.0304 0.96967C10.8897 0.829018 10.6989 0.75 10.5 0.75Z" fill="#DBDBDB"/>
</svg>
