<svg width="8" height="8" viewBox="0 0 8 8" fill="none" xmlns="http://www.w3.org/2000/svg">
<path d="M6.47908 0.934814H1.28123C1.14198 0.934814 1.00843 0.990131 0.909969 1.08859C0.811505 1.18706 0.756189 1.3206 0.756189 1.45985C0.756189 1.5991 0.811505 1.73264 0.909969 1.83111C1.00843 1.92957 1.14198 1.98489 1.28123 1.98489H5.21112L0.910287 6.28624C0.860141 6.33467 0.820143 6.39261 0.792626 6.45667C0.765109 6.52072 0.750626 6.58962 0.75002 6.65933C0.749414 6.72904 0.762698 6.79818 0.789098 6.86271C0.815497 6.92723 0.854482 6.98585 0.903779 7.03515C0.953076 7.08445 1.0117 7.12343 1.07622 7.14983C1.14075 7.17623 1.20988 7.18951 1.2796 7.18891C1.34931 7.1883 1.41821 7.17382 1.48226 7.1463C1.54632 7.11879 1.60426 7.07879 1.65269 7.02864L5.95404 2.72755V6.6577C5.95404 6.79695 6.00936 6.9305 6.10782 7.02896C6.20629 7.12742 6.33983 7.18274 6.47908 7.18274C6.61833 7.18274 6.75187 7.12742 6.85034 7.02896C6.9488 6.9305 7.00411 6.79695 7.00411 6.6577V1.45985C7.00411 1.3206 6.9488 1.18706 6.85034 1.08859C6.75187 0.990131 6.61833 0.934814 6.47908 0.934814Z" fill="#B4B4B4"/>
</svg>
